<svg width="458" height="511" viewBox="0 0 458 511" fill="none" xmlns="http://www.w3.org/2000/svg">
<path d="M217 0.500488C225.354 0.500483 232.709 0.00123857 241.22 0.303223C247.159 3.54063 253.078 6.23786 258.699 9.45557C277.241 20.0704 295.647 30.925 314.16 41.5903C332.688 52.2641 351.308 62.7804 369.844 73.4409C388.938 84.4223 407.97 95.5117 427.048 106.521C436.542 112 446.372 117.068 451.259 127.559L451.488 128.062L451.888 129.249C453.944 135.186 456.762 141.184 456.792 147.196C457.147 218.651 456.962 290.109 457.079 361.566C457.093 369.828 455.632 377.531 451.352 384.95C451.234 384.88 451.117 384.808 451 384.738V385.114C451.016 385.124 451.031 385.135 451.047 385.146C451.032 385.182 451.015 385.217 451 385.253V386H450.671C447.558 392.753 441.768 397.033 435.678 400.61C414.981 412.764 394.031 424.488 373.231 436.468C350.153 449.761 327.196 463.265 304.065 476.466C284.662 487.54 265.086 498.312 245.584 509.213C244.335 509.912 243.07 510.581 241.906 511.632C233.646 512.001 225.292 512 216.469 512C215.648 511.386 215.45 510.487 214.921 510.198C201.679 502.967 188.296 495.989 175.158 488.577C158.276 479.051 141.607 469.147 124.806 459.477C106.29 448.821 87.7031 438.288 69.1943 427.621C52.8255 418.186 36.4907 408.69 20.2031 399.116C14.5157 395.773 9.95383 391.269 6.76172 385.234C6.31133 384.515 5.93664 383.734 5.65039 382.906C5.62528 382.916 5.60032 382.927 5.5752 382.937C3.85433 377.565 1.20356 372.416 1.18457 367.257C0.915317 293.112 0.820769 218.964 1.1875 144.82C1.24516 133.173 6.40085 122.762 16.4785 115.978C24.7406 110.416 33.4406 105.491 42.0488 100.459C62.8083 88.3252 83.5976 76.2409 104.433 64.2368C122.846 53.6281 141.284 43.0595 159.81 32.6489C178.305 22.2552 196.928 12.0861 215.461 1.75928C215.847 1.54403 216.829 1.10262 217 0.500488ZM359.375 178.903C311.63 100.16 210.273 82.2376 140.653 133.472C93.8914 167.885 73.6108 215.154 78.7861 273.083C80.662 294.079 87.8211 313.448 97.5137 331.901C97.9954 332.239 98.3823 332.657 98.6406 333.128C99.2253 333.797 99.602 334.397 99.9727 335C144.955 408.156 241.458 429.428 312.811 381.943C332.409 368.9 347.817 351.927 360.43 332.05C361.004 332.298 361.562 332.531 362.104 332.758C361.562 332.531 361.003 332.297 360.429 332.049C359.471 331.244 358.998 330.281 358.227 329.833C337.583 317.88 316.91 305.976 295.646 293.812C284.587 312.471 265.593 325.992 243.232 329.867C215.384 335.241 184.539 324.973 165.979 297.188C165.243 296.087 164.623 294.907 163.883 293.419C163.941 293.385 164 293.35 164.059 293.315C164.004 293.22 163.95 293.124 163.896 293.03C163.869 293.045 163.843 293.061 163.816 293.076C148.697 270.126 150.758 234.722 168.664 210.922C187.292 186.165 217.085 176.65 244.347 182.334C265.885 186.395 284.196 199.428 295.136 217.339C314.939 206.044 334.751 194.761 354.531 183.425C356.335 182.391 357.932 180.994 359.63 179.433C359.831 179.324 360.034 179.216 360.235 179.109L360.026 178.632C359.809 178.722 359.592 178.813 359.375 178.903ZM395.951 231.909H377.634V220.485H362.69V232.453H351.205V247.476H362.622V265.752H351.128V280.36C355.164 280.549 358.893 280.725 363.001 280.917V292.428H378.139V280.892H396.105V292.557H410.997V281.087C415.284 280.67 419.024 280.306 423.063 279.071V265.583H411.31V247.19H422.845V232.23H410.843V220.436H395.951V231.909ZM395.73 265.312H377.897V247.614H395.73V265.312Z" fill="#2D9FE5"/>
</svg>
