<svg width="44" height="35" viewBox="0 0 44 35" fill="none" xmlns="http://www.w3.org/2000/svg">
<path d="M43.96 10.168C43.96 12.088 43.176 14.408 41.608 17.128C40.072 19.848 38.088 22.472 35.656 25C33.224 27.528 30.28 29.688 26.824 31.48C23.368 33.272 19.976 34.184 16.648 34.216C16.456 34.216 16.136 34.12 15.688 33.928C15.272 33.768 14.92 33.56 14.632 33.304C13.928 32.632 13.576 31.64 13.576 30.328C13.8 29.144 14.296 28.184 15.064 27.448C15.32 27.192 15.448 27.032 15.448 26.968H15.4C15.336 26.968 15.176 27.048 14.92 27.208L6.232 33.688C5.656 34.328 5.096 34.648 4.552 34.648C4.392 34.648 4.216 34.6 4.024 34.504L2.872 33.4C2.776 33.336 2.728 33.16 2.728 32.872C2.728 32.616 2.888 32.184 3.208 31.576C3.528 30.968 4.184 29.944 5.176 28.504C6.168 27.032 7.592 25.08 9.448 22.648C11.336 20.216 13.768 17.528 16.744 14.584C19.752 11.608 22.936 8.872 26.296 6.376C26.968 5.736 27.608 5.416 28.216 5.416C28.376 5.416 28.648 5.528 29.032 5.752C29.544 6.008 29.8 6.264 29.8 6.52C29.8 6.776 29.72 6.968 29.56 7.096L26.2 10.36C18.328 18.488 13.336 24.008 11.224 26.92C10.968 27.208 10.84 27.416 10.84 27.544C10.84 27.64 10.872 27.688 10.936 27.688C11.032 27.688 11.128 27.64 11.224 27.544C13.752 25.848 16.536 24.296 19.576 22.888C19.8 22.76 19.992 22.696 20.152 22.696C20.344 22.696 20.488 22.76 20.584 22.888L21.496 23.992C21.624 24.184 21.688 24.376 21.688 24.568C21.688 24.728 21.624 24.856 21.496 24.952L20.968 25.528C19.08 27.384 18.104 28.568 18.04 29.08C18.072 29.24 18.152 29.32 18.28 29.32C20.168 29.32 22.952 28.184 26.632 25.912C30.312 23.64 33.672 20.952 36.712 17.848C39.752 14.712 41.272 12.12 41.272 10.072C41.272 9.368 40.904 8.648 40.168 7.912C39.464 7.176 38.712 6.584 37.912 6.136C35.928 5.08 33.464 4.552 30.52 4.552C27.576 4.552 24.76 4.888 22.072 5.56C19.384 6.2 17 7 14.92 7.96C12.872 8.92 11 9.944 9.304 11.032C7.64 12.088 6.36 13.064 5.464 13.96C4.568 14.824 4.12 15.464 4.12 15.88C4.12 15.976 4.168 16.024 4.264 16.024C5.256 16.024 7.128 15.336 9.88 13.96C12.664 12.584 14.504 11.464 15.4 10.6C16.2 10.024 16.712 9.736 16.936 9.736C17.064 9.736 17.128 9.864 17.128 10.12C17.128 10.344 16.92 10.76 16.504 11.368C16.088 11.976 15.48 12.712 14.68 13.576C13.88 14.408 13 15.24 12.04 16.072C11.08 16.872 9.976 17.56 8.728 18.136C7.48 18.712 6.376 19 5.416 19C4.456 19 3.448 18.584 2.392 17.752C1.336 16.888 0.808 15.816 0.808 14.536C0.808 12.008 2.424 9.592 5.656 7.288C8.888 4.984 12.632 3.208 16.888 1.96C21.176 0.711998 24.824 0.0879974 27.832 0.0879974C30.84 0.0879974 33.304 0.375998 35.224 0.951998C37.144 1.528 38.616 2.216 39.64 3.016C40.696 3.816 41.576 4.728 42.28 5.752C43.304 7.288 43.864 8.76 43.96 10.168Z" fill="#4FBFFF"/>
</svg>
